<svg width="24" height="24" viewBox="0 0 24 24" fill="none" xmlns="http://www.w3.org/2000/svg">
<path d="M21.2129 2.73959C21.1483 2.68369 21.0695 2.64654 20.9852 2.63216C20.901 2.61779 20.8144 2.62673 20.7348 2.65803L1.73544 10.0933C1.54176 10.1685 1.37776 10.3046 1.26817 10.4811C1.15857 10.6576 1.10932 10.865 1.12784 11.0719C1.14635 11.2789 1.23163 11.4742 1.37081 11.6284C1.51 11.7827 1.69555 11.8875 1.8995 11.9271L7.12513 12.9527V18.7502C7.1251 18.9745 7.19211 19.1937 7.31757 19.3796C7.44302 19.5656 7.62119 19.7097 7.82919 19.7937C7.96304 19.8474 8.10591 19.875 8.25013 19.8752C8.40109 19.8749 8.55043 19.8441 8.68927 19.7849C8.8281 19.7256 8.95359 19.639 9.05825 19.5302L11.6833 16.8115L15.7145 20.3468C15.9189 20.527 16.1817 20.627 16.4542 20.628C16.5732 20.6275 16.6914 20.6089 16.8048 20.5727C16.9904 20.514 17.1573 20.4075 17.289 20.2641C17.4206 20.1206 17.5122 19.9452 17.5548 19.7552L21.3629 3.19897C21.382 3.11599 21.3781 3.02939 21.3517 2.94846C21.3253 2.86753 21.2773 2.79532 21.2129 2.73959ZM1.87513 11.0046C1.86963 10.9592 1.87985 10.9134 1.90407 10.8747C1.9283 10.8359 1.96507 10.8067 2.00825 10.7918L18.3817 4.38397L7.41294 12.2449L2.04482 11.1912C1.99932 11.1845 1.95753 11.1623 1.92659 11.1282C1.89565 11.0942 1.87746 11.0505 1.87513 11.0046ZM8.51919 19.009C8.46735 19.0624 8.40078 19.0991 8.32797 19.1146C8.25516 19.13 8.17939 19.1235 8.11033 19.0957C8.04126 19.068 7.98201 19.0203 7.94013 18.9588C7.89824 18.8973 7.87562 18.8246 7.87513 18.7502V13.4721L11.117 16.3127L8.51919 19.009ZM16.8236 19.5846C16.8091 19.6483 16.7782 19.707 16.734 19.7551C16.6898 19.8032 16.6338 19.8389 16.5716 19.8586C16.5094 19.8784 16.4431 19.8816 16.3792 19.8679C16.3154 19.8542 16.2562 19.8241 16.2076 19.7805L8.10294 12.6733L20.4498 3.82522L16.8236 19.5846Z" fill="#4B5196"/>
</svg>
