<svg width="355" height="156" viewBox="0 0 355 156" fill="none" xmlns="http://www.w3.org/2000/svg">
<path fill-rule="evenodd" clip-rule="evenodd" d="M121 6.5C120.5 6.5 118.988 7.678 114 11C103.488 18 98.353 21.42 92.513 23.375C86.278 25.462 85.046 25.916 83.574 26.667C81.594 27.676 79.8688 29.134 78.7984 30.702C77.072 33.23 76.7301 34.381 75.5814 41.525C74.7513 46.688 74.2775 48.779 73.6718 49.952C73.2697 50.73 73.168 51.402 73.4524 51.402C73.791 51.402 75.4326 49.372 76.6282 47.474C77.3066 46.397 78.6159 44.034 79.5379 42.223C83.267 34.899 84.074 33.891 86.479 33.552C88.219 33.307 89.436 32.129 89.438 30.688C89.439 29.67 90.639 28.554 94.278 26.186C103.619 19.713 119.852 8.748 121 7C121.254 6.508 121.5 6.5 121 6.5ZM95.681 27.022C93.555 28.947 91.01 31.752 90.102 33.173C89.726 33.76 89.083 35.179 88.673 36.326C87.726 38.977 86.983 40.094 83.958 43.421C82.61 44.902 80.817 46.967 79.9727 48.01C76.6626 52.097 72.8805 58.062 70.5558 62.862C67.7403 68.675 64.5851 78.432 64.1476 82.678L64.0194 83.924L67.5473 81.477C69.4876 80.131 72.7192 78.006 74.7286 76.754C82.965 71.625 86.074 68.899 88.6 64.591C89.662 62.78 91.158 60.741 91.452 59.459C91.452 60.276 92.435 58.138 92.513 58.138C92.888 58.138 92.515 58.461 92.515 59.81C92.515 61.677 92.086 63.464 91.138 65.541C90.719 66.458 90.422 67.256 90.478 67.314C90.791 67.638 94.55 63.906 96.154 61.679C97.473 59.848 98.759 57.106 99.29 54.994C100.222 51.283 99.668 44.534 98.007 39.379C97.233 36.977 96.619 33.984 96.441 31.748C96.284 29.781 96.581 28.128 97.341 26.735C97.648 26.173 97.899 25.656 97.899 25.587C97.899 25.192 97.209 25.639 95.681 27.022ZM86.324 30.091C86.68 30.461 86.598 30.995 86.132 31.333C85.751 31.61 85.677 31.608 85.363 31.314C84.777 30.763 85.04 29.852 85.785 29.852C85.954 29.852 86.197 29.96 86.324 30.091ZM62.7826 67.615C59.7806 71.338 56.2921 76.723 54.6415 80.181C53.5305 82.509 51.2792 89.123 50.6839 91.809C50.4547 92.843 50.332 94.97 50.2118 99.99C50.0976 104.762 49.9657 107.13 49.7674 107.972C49.6124 108.63 49.2619 110.103 48.9883 111.245C46.3999 122.056 49.8661 132.51 58.9751 141.368C62.0153 144.324 66.437 147.557 70.4404 149.753C73.7179 151.55 73.9145 151.339 71.163 148.98C66.8221 145.258 62.9945 140.175 60.25 134.488C58.0644 129.959 55.4624 120.171 56.1198 118.952C56.261 118.69 56.535 118.949 57.5712 120.322C60.4255 124.103 63.775 127.534 67.2484 130.237C68.5635 131.26 71.0915 132.814 71.4397 132.814C71.7699 132.814 71.4128 132.093 70.0064 129.92C68.0514 126.9 65.3258 121.791 64.1715 118.984C63.0125 116.165 61.1195 110.307 60.5142 107.667C59.9713 105.3 59.5218 102.083 59.3435 99.292C59.176 96.671 59.5237 94.925 61.066 90.64C61.7715 88.68 62.3053 87.032 62.2522 86.977C62.1649 86.886 61.6135 87.471 59.8602 89.514L59.2608 90.213L59.2551 88.392C59.2443 84.899 60.6241 78.387 62.9862 70.784C64.6547 65.413 64.6476 65.302 62.7826 67.615Z" fill="url(#paint0_linear_445_155)"/>
<path d="M98.7 25.5C97.7 26.833 100.5 40 101.5 47C102.571 54.5 102.5 60.5 88 69.5C89.167 66.5 90 64 90 62.5C89.167 66.333 87 68.5 82 73C77 77.5 71 81 64 83C67 79.5 69.7875 79.752 75.5 75C79 74 86.683 65.633 90 57C90.22 56.56 90.989 59.027 91.5 59C91.723 58.692 92 56.5 92.5 56.5C94.098 57.774 92.728 65.193 90.312 66.825C95.669 63.734 99.991 56.81 99.5 47C99.299 45.794 97.506 40.404 96.5 35C95.838 31.444 95.049 27.881 98.7 25.5Z" fill="#888DC9"/>
<path d="M45.6861 55.7492C44.601 55.3872 38 57.1442 38 58.5002C38.6499 60.4502 42 63.0002 49.7553 64.0422C56.2894 64.9212 64.5 59.0692 64.5 55.7492C57.266 51.6802 47.0425 56.2012 45.6861 55.7492Z" fill="url(#paint1_linear_445_155)"/>
<path d="M45.7389 54.27C44.6538 53.908 38.0527 56.982 38.0527 58.339C38.7027 60.288 47.9995 62.581 49.808 62.563C56.4006 62.499 64.276 58.946 64.276 55.626C57.042 51.557 47.0952 54.722 45.7389 54.27Z" fill="url(#paint2_linear_445_155)"/>
<path d="M69.5 53.0002C60.0054 39.1352 34.2126 11.4152 6 12.5002C6 36.5002 68.5 58.0002 69.5 53.0002Z" fill="url(#paint3_linear_445_155)"/>
<path d="M26.5008 38.0002C35.0472 31.1632 68.0005 51.5002 66.0005 55.0002C64.0005 58.5002 48.7001 59.9672 39.2055 54.5412C29.912 50.1582 24.0008 40.0002 26.5008 38.0002Z" fill="url(#paint4_linear_445_155)"/>
<path d="M26.7495 37.7272C34.4887 29.9882 70.1535 51.7432 66.0844 55.3602C64.0187 57.1972 50.26 58.0422 40.7654 52.6162C31.4719 48.2332 25.3931 39.0842 26.7495 37.7272Z" fill="url(#paint5_linear_445_155)"/>
<path d="M71.0582 53.0999C61.5636 39.2349 34.6169 11.2919 6.4043 12.3769C11.8298 34.9519 68.7976 55.3609 71.0582 53.0999Z" fill="url(#paint6_linear_445_155)"/>
<path d="M97.394 25.6382L120.508 8.57318C121.871 7.21018 123.962 4.00718 121.871 5.30218C105.298 16.2062 99.155 19.5682 97.066 20.5672C79.4022 21.6572 75.168 33.8552 75.2589 39.8172C75.5433 42.7392 73.3655 50.6602 73.8177 50.8452C74.2698 51.2742 75.8264 47.8902 76.1971 47.4442C77.167 45.6452 77.4354 44.5912 78.3691 42.8342C79.3002 41.0812 80.9657 38.4652 80.9657 38.4652M80.9657 38.4652L83.65 34.3902M80.9657 38.4652C82.394 35.9692 83.65 34.3902 83.65 34.3902M83.65 34.3902C83.65 34.3902 85.987 33.6082 86.929 33.0282C88.138 32.2842 88.554 31.7212 88.738 30.7672C88.838 30.2472 88.825 29.8822 88.583 29.4112C88.325 28.9082 87.909 28.7082 87.381 28.5062C86.264 28.0792 85.072 28.5372 84.491 28.9782C83.637 29.8312 83.451 30.4912 83.722 31.7212C83.947 32.7442 83.65 34.3902 83.65 34.3902ZM30.8565 37.1522C31.9893 38.9812 59.9609 51.4682 60.8773 50.5532M45.7859 55.1822C50.7364 57.1732 59.7438 57.6032 60.2539 56.5382M50.1429 103.481C50.192 102.422 54.7305 94.6252 56.9227 91.8352C58.1079 90.3272 58.5505 89.2312 58.4317 88.1032C58.1259 85.1932 59.8846 77.1322 62.4867 69.5122C63.197 67.4332 63.7051 65.6592 63.6163 65.5712C63.305 65.2602 59.2276 70.4412 56.4773 74.6432C53.6424 78.9742 52.7941 80.7932 50.9231 86.5502C49.3655 91.3442 49.0968 92.9352 49.1289 97.1612C49.1502 99.8952 49.3781 102.622 49.6359 103.22C49.9565 103.965 50.1168 104.048 50.1429 103.481ZM50.1429 103.481C44.7948 114.459 41.8793 140.207 73.4991 150.675C67.8418 147.637 56.3271 136.065 55.0293 118.774M55.0293 118.774L55.388 117.459L56.3682 118.952C59.0052 122.969 65.5789 128.986 69.7854 131.233C71.5398 132.17 71.5419 131.781 69.7979 129.34C68.1608 127.049 67.8708 126.562 64.7796 120.906C62.8792 117.428 61.5165 115.462 60.2539 111.245C58.9282 106.818 58.5408 102.608 58.4317 99.0382C58.3452 96.2082 59.5054 92.4112 58.8975 91.8042C58.2897 91.1972 54.1216 99.9962 53.9242 108.985C53.8397 112.831 54.4683 120.832 55.0293 118.774ZM17.3406 13.9732C29.7416 16.7672 41.6912 23.6332 54.8036 35.5002C58.7473 39.0692 65.2414 46.3532 68.4846 50.8452C70.1272 53.1212 70.2243 53.4302 69.2964 53.4302C68.7169 53.4302 67.5518 53.1592 66.7079 52.8272C65.864 52.4962 64.4547 52.0112 63.577 51.7492L61.9807 51.2742L63.843 53.1912C65.3886 54.7832 65.5674 55.1972 64.8941 55.6222C64.4482 55.9042 63.8992 56.1382 63.674 56.1422C63.4494 56.1472 63.3268 56.4262 63.4015 56.7632C63.6413 57.8412 58.6579 60.9842 55.3422 61.8462C53.5769 62.3052 50.8963 62.6762 49.3851 62.6692C46.5791 62.6572 40.3435 60.7672 38.2233 59.2842C37.0583 58.4702 37.0714 58.4462 39.3884 57.1102C40.6766 56.3682 42.4348 55.5922 43.2945 55.3852C44.845 55.0122 44.9611 54.5352 43.5513 54.3292C43.1479 54.2702 41.1029 53.2812 39.0062 52.1302C32.5334 48.5792 24.1078 38.9582 26.2721 37.5892C26.6788 37.3322 27.4404 37.1182 27.9654 37.1132C29.3207 37.1022 29.1479 36.0802 27.6928 35.5032C25.4707 34.6232 17.2458 27.6392 13.3821 23.3532C9.8614 19.4482 8.6223 17.7652 7.1781 14.9302L6 12.6182H8.6637C10.1291 12.6182 14.0336 13.2272 17.3406 13.9732ZM97.394 26.8522C96.892 27.5672 96.521 29.1902 96.521 30.6702C96.521 33.0542 97.676 38.6112 98.423 39.8172C98.601 40.1042 99.109 42.3662 99.552 44.8442C101.006 52.9752 99.308 58.6592 93.777 64.1772C90.502 67.4442 89.557 67.8212 91.045 65.2652C92.359 63.0092 92.114 58.7502 91.341 57.4242C90.889 56.6462 90.047 56.0152 90.387 57.4242C90.727 58.8322 83.507 70.7752 76.1513 75.1022C72.9316 76.9962 68.6989 79.6382 66.745 80.9742L63.1921 83.4022L63.5519 80.7952C64.0622 77.1032 67.3834 67.4942 69.8137 62.6802C73.2189 55.9362 78.1238 48.9852 82.994 44.0022C86.826 40.0812 87.76 38.7722 88.583 36.1652C89.395 33.5932 90.29 32.3172 93.605 29.0082C97.424 25.1972 99.307 24.1252 97.394 26.8522ZM85.072 30.5752C85.072 30.8742 85.317 31.1192 85.617 31.1192C85.917 31.1192 86.162 30.8742 86.162 30.5752C86.162 30.2762 85.917 30.0312 85.617 30.0312C85.317 30.0312 85.072 30.2762 85.072 30.5752Z" stroke="#064CB6" stroke-width="0.54517"/>
<path d="M88.712 131V97.4H99.032C102.584 97.4 105.72 98.104 108.44 99.512C111.192 100.92 113.32 102.904 114.824 105.464C116.36 107.992 117.128 110.904 117.128 114.2C117.128 117.496 116.36 120.424 114.824 122.984C113.32 125.512 111.192 127.48 108.44 128.888C105.72 130.296 102.584 131 99.032 131H88.712ZM99.032 127.064C101.752 127.064 104.136 126.536 106.184 125.48C108.232 124.392 109.816 122.888 110.936 120.968C112.088 119.016 112.664 116.76 112.664 114.2C112.664 111.64 112.088 109.4 110.936 107.48C109.816 105.528 108.232 104.024 106.184 102.968C104.136 101.88 101.752 101.336 99.032 101.336H93.032V127.064H99.032ZM130.977 131.48C128.61 131.48 126.466 130.936 124.546 129.848C122.626 128.76 121.105 127.288 119.985 125.432C118.897 123.544 118.353 121.432 118.353 119.096C118.353 116.696 118.913 114.552 120.033 112.664C121.154 110.744 122.674 109.24 124.593 108.152C126.514 107.064 128.658 106.52 131.026 106.52C133.362 106.52 135.474 107.064 137.362 108.152C139.282 109.24 140.786 110.744 141.873 112.664C142.994 114.552 143.554 116.664 143.554 119C143.554 119.064 143.554 119.144 143.554 119.24C143.554 119.336 143.554 119.416 143.554 119.48H122.097C122.161 121.08 122.594 122.536 123.394 123.848C124.194 125.128 125.25 126.152 126.562 126.92C127.906 127.656 129.394 128.024 131.026 128.024C132.818 128.024 134.402 127.624 135.778 126.824C137.154 125.992 138.098 124.92 138.61 123.608H142.69C142.402 125.016 141.714 126.328 140.626 127.544C139.57 128.728 138.21 129.688 136.546 130.424C134.882 131.128 133.026 131.48 130.977 131.48ZM139.906 118.52C139.842 116.92 139.41 115.48 138.61 114.2C137.81 112.888 136.738 111.864 135.394 111.128C134.082 110.36 132.626 109.976 131.026 109.976C129.426 109.976 127.954 110.36 126.61 111.128C125.298 111.864 124.226 112.888 123.394 114.2C122.594 115.48 122.161 116.92 122.097 118.52H139.906ZM146.303 131V107H150.143V114.536C150.751 112.104 151.887 110.168 153.551 108.728C155.215 107.256 157.167 106.52 159.407 106.52C161.423 106.52 163.167 106.984 164.639 107.912C166.143 108.84 167.279 110.168 168.047 111.896C168.847 113.592 169.247 115.608 169.247 117.944V131H165.407V118.472C165.407 115.912 164.719 113.88 163.343 112.376C161.999 110.872 160.143 110.12 157.775 110.12C156.367 110.12 155.071 110.488 153.887 111.224C152.735 111.96 151.823 112.968 151.151 114.248C150.479 115.528 150.143 116.936 150.143 118.472V131H146.303ZM184.345 131.48C181.433 131.48 179.273 130.824 177.865 129.512C176.457 128.168 175.753 126.2 175.753 123.608V110.504H169.897V107H174.361C174.937 107 175.369 106.856 175.657 106.568C175.945 106.248 176.089 105.8 176.089 105.224V101.24H179.593L179.545 107H189.865V110.504H179.545V122.792C179.545 124.552 179.993 125.848 180.889 126.68C181.785 127.48 183.177 127.88 185.065 127.88C186.441 127.88 188.041 127.656 189.865 127.208V130.712C189.033 130.904 188.089 131.08 187.033 131.24C186.009 131.4 185.113 131.48 184.345 131.48ZM197.569 131.576C195.265 131.576 193.457 131.032 192.145 129.944C190.833 128.856 190.177 127.368 190.177 125.48C190.177 123.624 190.785 122.184 192.001 121.16C193.249 120.136 194.737 119.432 196.465 119.048C198.193 118.632 200.161 118.344 202.369 118.184C204.289 118.056 205.761 117.832 206.785 117.512C207.841 117.192 208.369 116.616 208.369 115.784C208.369 113.928 207.745 112.456 206.497 111.368C205.249 110.248 203.681 109.688 201.793 109.688C199.809 109.688 198.177 110.248 196.897 111.368C195.617 112.456 194.833 113.976 194.545 115.928H190.945C191.137 113.976 191.713 112.296 192.673 110.888C193.665 109.448 194.945 108.36 196.513 107.624C198.113 106.888 199.889 106.52 201.841 106.52C203.825 106.52 205.569 106.904 207.073 107.672C208.609 108.44 209.793 109.56 210.625 111.032C211.489 112.504 211.921 114.216 211.921 116.168V127.592H215.233V131H208.417V123.176C207.713 125.672 206.401 127.704 204.481 129.272C202.561 130.808 200.257 131.576 197.569 131.576ZM199.201 128.504C200.929 128.504 202.481 128.104 203.857 127.304C205.265 126.472 206.369 125.384 207.169 124.04C207.969 122.664 208.369 121.192 208.369 119.624L208.417 117.704C207.969 118.088 207.345 118.376 206.545 118.568C205.777 118.76 204.737 118.904 203.425 119C203.361 119 203.281 119.016 203.185 119.048C203.089 119.048 203.009 119.048 202.945 119.048C199.905 119.304 197.665 119.848 196.225 120.68C194.785 121.48 194.065 122.68 194.065 124.28C194.065 125.656 194.529 126.712 195.457 127.448C196.385 128.152 197.633 128.504 199.201 128.504ZM217.752 131V96.92H221.592V131H217.752ZM247.439 131.72C244.559 131.72 242.015 131.224 239.807 130.232C237.599 129.208 235.839 127.768 234.527 125.912C233.247 124.056 232.495 121.912 232.271 119.48H236.543C236.799 121.24 237.375 122.76 238.271 124.04C239.167 125.32 240.367 126.328 241.871 127.064C243.407 127.768 245.183 128.12 247.199 128.12C250.079 128.12 252.319 127.56 253.919 126.44C255.519 125.288 256.319 123.672 256.319 121.592C256.319 120.088 255.855 118.872 254.927 117.944C254.031 116.984 252.815 116.248 251.279 115.736C249.775 115.224 247.823 114.744 245.423 114.296H245.375C242.847 113.816 240.735 113.272 239.039 112.664C237.375 112.056 236.031 111.192 235.007 110.072C233.983 108.952 233.471 107.496 233.471 105.704C233.471 103.88 233.999 102.296 235.055 100.952C236.143 99.576 237.631 98.52 239.519 97.784C241.439 97.048 243.615 96.68 246.047 96.68C248.831 96.68 251.263 97.176 253.343 98.168C255.455 99.128 257.119 100.504 258.335 102.296C259.551 104.088 260.255 106.216 260.447 108.68H255.983C255.695 106.056 254.687 104.008 252.959 102.536C251.231 101.064 248.975 100.328 246.191 100.328C244.431 100.328 242.879 100.6 241.535 101.144C240.223 101.688 239.199 102.472 238.463 103.496C237.727 104.488 237.359 105.656 237.359 107C237.359 108.44 237.807 109.608 238.703 110.504C239.599 111.368 240.831 112.056 242.399 112.568C243.967 113.048 246.143 113.576 248.927 114.152C249.055 114.184 249.167 114.216 249.263 114.248C249.359 114.248 249.455 114.264 249.551 114.296C249.615 114.328 249.679 114.344 249.743 114.344C249.807 114.344 249.871 114.36 249.935 114.392C252.175 114.84 254.015 115.352 255.455 115.928C256.927 116.472 258.127 117.304 259.055 118.424C260.015 119.512 260.495 120.952 260.495 122.744C260.495 124.568 259.951 126.168 258.863 127.544C257.807 128.888 256.287 129.928 254.303 130.664C252.351 131.368 250.063 131.72 247.439 131.72ZM274.504 131.48C271.592 131.48 269.432 130.824 268.024 129.512C266.616 128.168 265.912 126.2 265.912 123.608V110.504H260.056V107H264.52C265.096 107 265.528 106.856 265.816 106.568C266.104 106.248 266.248 105.8 266.248 105.224V101.24H269.752L269.704 107H280.024V110.504H269.704V122.792C269.704 124.552 270.152 125.848 271.048 126.68C271.944 127.48 273.336 127.88 275.224 127.88C276.6 127.88 278.2 127.656 280.024 127.208V130.712C279.192 130.904 278.248 131.08 277.192 131.24C276.168 131.4 275.272 131.48 274.504 131.48ZM292.215 131.48C289.815 131.48 287.623 130.936 285.639 129.848C283.687 128.76 282.151 127.272 281.031 125.384C279.943 123.464 279.399 121.336 279.399 119C279.399 116.664 279.943 114.552 281.031 112.664C282.151 110.744 283.687 109.24 285.639 108.152C287.623 107.064 289.815 106.52 292.215 106.52C294.583 106.52 296.743 107.064 298.695 108.152C300.647 109.24 302.183 110.744 303.303 112.664C304.455 114.552 305.031 116.664 305.031 119C305.031 121.336 304.455 123.464 303.303 125.384C302.183 127.272 300.647 128.76 298.695 129.848C296.743 130.936 294.583 131.48 292.215 131.48ZM292.215 127.88C293.847 127.88 295.335 127.496 296.679 126.728C298.055 125.928 299.127 124.856 299.895 123.512C300.695 122.168 301.095 120.664 301.095 119C301.095 117.336 300.695 115.832 299.895 114.488C299.127 113.112 298.055 112.04 296.679 111.272C295.335 110.472 293.847 110.072 292.215 110.072C290.551 110.072 289.031 110.472 287.655 111.272C286.311 112.04 285.239 113.112 284.439 114.488C283.671 115.832 283.287 117.336 283.287 119C283.287 120.664 283.671 122.168 284.439 123.512C285.239 124.856 286.311 125.928 287.655 126.728C289.031 127.496 290.551 127.88 292.215 127.88ZM308.005 131V107H311.845V114.536C312.421 112.232 313.461 110.328 314.965 108.824C316.501 107.288 318.357 106.52 320.533 106.52C322.165 106.52 323.541 106.872 324.661 107.576C325.813 108.248 326.661 109.256 327.205 110.6C327.781 111.912 328.069 113.512 328.069 115.4V117.032H324.277V116.072C324.277 114.152 323.797 112.68 322.837 111.656C321.909 110.632 320.581 110.12 318.853 110.12C317.541 110.12 316.357 110.504 315.301 111.272C314.245 112.008 313.397 113.016 312.757 114.296C312.149 115.576 311.845 117 311.845 118.568V131H308.005ZM339.656 131.48C337.288 131.48 335.144 130.936 333.224 129.848C331.304 128.76 329.784 127.288 328.664 125.432C327.576 123.544 327.032 121.432 327.032 119.096C327.032 116.696 327.592 114.552 328.712 112.664C329.832 110.744 331.352 109.24 333.272 108.152C335.192 107.064 337.336 106.52 339.704 106.52C342.04 106.52 344.152 107.064 346.04 108.152C347.96 109.24 349.464 110.744 350.552 112.664C351.672 114.552 352.232 116.664 352.232 119C352.232 119.064 352.232 119.144 352.232 119.24C352.232 119.336 352.232 119.416 352.232 119.48H330.776C330.84 121.08 331.272 122.536 332.072 123.848C332.872 125.128 333.928 126.152 335.24 126.92C336.584 127.656 338.072 128.024 339.704 128.024C341.496 128.024 343.08 127.624 344.456 126.824C345.832 125.992 346.776 124.92 347.288 123.608H351.368C351.08 125.016 350.392 126.328 349.304 127.544C348.248 128.728 346.888 129.688 345.224 130.424C343.56 131.128 341.704 131.48 339.656 131.48ZM348.584 118.52C348.52 116.92 348.088 115.48 347.288 114.2C346.488 112.888 345.416 111.864 344.072 111.128C342.76 110.36 341.304 109.976 339.704 109.976C338.104 109.976 336.632 110.36 335.288 111.128C333.976 111.864 332.904 112.888 332.072 114.2C331.272 115.48 330.84 116.92 330.776 118.52H348.584Z" fill="#4B5196"/>
<defs>
<linearGradient id="paint0_linear_445_155" x1="48" y1="-2.882" x2="148.345" y2="171.669" gradientUnits="userSpaceOnUse">
<stop offset="0.292504" stop-color="#B4BAFF"/>
<stop offset="0.900675" stop-color="#060C52"/>
</linearGradient>
<linearGradient id="paint1_linear_445_155" x1="34.8351" y1="59.3662" x2="59.2499" y2="58.0092" gradientUnits="userSpaceOnUse">
<stop stop-color="#9856A7"/>
<stop offset="1" stop-color="#C8C5B4"/>
</linearGradient>
<linearGradient id="paint2_linear_445_155" x1="34.8879" y1="57.887" x2="59.3026" y2="56.53" gradientUnits="userSpaceOnUse">
<stop stop-color="#E985FF"/>
<stop offset="1" stop-color="#FFFBE6"/>
</linearGradient>
<linearGradient id="paint3_linear_445_155" x1="3.1915" y1="17.5142" x2="65.5848" y2="58.2052" gradientUnits="userSpaceOnUse">
<stop stop-color="#B55678"/>
<stop offset="1" stop-color="#D1CCC5"/>
</linearGradient>
<linearGradient id="paint4_linear_445_155" x1="30.615" y1="42.8172" x2="61.8116" y2="57.7372" gradientUnits="userSpaceOnUse">
<stop stop-color="#A28ABA"/>
<stop offset="0.956836" stop-color="#D2CFBF"/>
</linearGradient>
<linearGradient id="paint5_linear_445_155" x1="32.175" y1="40.8922" x2="63.3717" y2="55.8122" gradientUnits="userSpaceOnUse">
<stop stop-color="#DAB6FD"/>
<stop offset="0.956836" stop-color="#FFFBE5"/>
</linearGradient>
<linearGradient id="paint6_linear_445_155" x1="4.5958" y1="12.8609" x2="66.9891" y2="53.5519" gradientUnits="userSpaceOnUse">
<stop stop-color="#F570A1"/>
<stop offset="1" stop-color="#FFF9F1"/>
</linearGradient>
</defs>
</svg>
