<svg width="360" height="146" viewBox="0 0 360 146" fill="none" xmlns="http://www.w3.org/2000/svg">
<g clip-path="url(#clip0_1305_2)">
<path fill-rule="evenodd" clip-rule="evenodd" d="M115 1.5C114.5 1.5 112.988 2.678 108 6C97.488 13 92.353 16.42 86.513 18.375C80.278 20.462 79.046 20.916 77.574 21.667C75.594 22.676 73.8688 24.134 72.7984 25.702C71.072 28.23 70.7301 29.381 69.5814 36.525C68.7513 41.688 68.2775 43.779 67.6718 44.952C67.2697 45.73 67.168 46.402 67.4524 46.402C67.791 46.402 69.4326 44.372 70.6282 42.474C71.3066 41.397 72.6159 39.034 73.5379 37.223C77.267 29.899 78.074 28.891 80.479 28.552C82.219 28.307 83.436 27.129 83.438 25.688C83.439 24.67 84.639 23.554 88.278 21.186C97.619 14.713 113.852 3.748 115 2C115.254 1.508 115.5 1.5 115 1.5ZM89.681 22.022C87.555 23.947 85.01 26.752 84.102 28.173C83.726 28.76 83.083 30.179 82.673 31.326C81.726 33.977 80.983 35.094 77.958 38.421C76.61 39.902 74.817 41.967 73.9727 43.01C70.6626 47.097 66.8805 53.062 64.5558 57.862C61.7403 63.675 58.5851 73.432 58.1476 77.678L58.0194 78.924L61.5473 76.477C63.4876 75.131 66.7192 73.006 68.7286 71.754C76.965 66.625 80.074 63.899 82.6 59.591C83.662 57.78 85.158 55.741 85.452 54.459C85.452 55.276 86.435 53.138 86.513 53.138C86.888 53.138 86.515 53.461 86.515 54.81C86.515 56.677 86.086 58.464 85.138 60.541C84.719 61.458 84.422 62.256 84.478 62.314C84.791 62.638 88.55 58.906 90.154 56.679C91.473 54.848 92.759 52.106 93.29 49.994C94.222 46.283 93.668 39.534 92.007 34.379C91.233 31.977 90.619 28.984 90.441 26.748C90.284 24.781 90.581 23.128 91.341 21.735C91.648 21.173 91.899 20.656 91.899 20.587C91.899 20.192 91.209 20.639 89.681 22.022ZM80.324 25.091C80.68 25.461 80.598 25.995 80.132 26.333C79.751 26.61 79.677 26.608 79.363 26.314C78.777 25.763 79.04 24.852 79.785 24.852C79.954 24.852 80.197 24.96 80.324 25.091ZM56.7826 62.615C53.7806 66.338 50.2921 71.723 48.6415 75.181C47.5305 77.509 45.2792 84.123 44.6839 86.809C44.4547 87.843 44.332 89.97 44.2118 94.99C44.0976 99.762 43.9657 102.13 43.7674 102.972C43.6124 103.63 43.2619 105.103 42.9883 106.245C40.3999 117.056 43.8661 127.51 52.9751 136.368C56.0153 139.324 60.437 142.557 64.4404 144.753C67.7179 146.55 67.9145 146.339 65.163 143.98C60.8221 140.258 56.9945 135.175 54.25 129.488C52.0644 124.959 49.4624 115.171 50.1198 113.952C50.261 113.69 50.535 113.949 51.5712 115.322C54.4255 119.103 57.775 122.534 61.2484 125.237C62.5635 126.26 65.0915 127.814 65.4397 127.814C65.7699 127.814 65.4128 127.093 64.0064 124.92C62.0514 121.9 59.3258 116.791 58.1715 113.984C57.0125 111.165 55.1195 105.307 54.5142 102.667C53.9713 100.3 53.5218 97.083 53.3435 94.292C53.176 91.671 53.5237 89.925 55.066 85.64C55.7715 83.68 56.3053 82.032 56.2522 81.977C56.1649 81.886 55.6135 82.471 53.8602 84.514L53.2608 85.213L53.2551 83.392C53.2443 79.899 54.6241 73.387 56.9862 65.784C58.6547 60.413 58.6476 60.302 56.7826 62.615Z" fill="url(#paint0_linear_1305_2)"/>
<path d="M92.7 20.5C91.7 21.833 94.5 35 95.5 42C96.571 49.5 96.5 55.5 82 64.5C83.167 61.5 84 59 84 57.5C83.167 61.333 81 63.5 76 68C71 72.5 65 76 58 78C61 74.5 63.7875 74.752 69.5 70C73 69 80.683 60.633 84 52C84.22 51.56 84.989 54.027 85.5 54C85.723 53.692 86 51.5 86.5 51.5C88.098 52.774 86.728 60.193 84.312 61.825C89.669 58.734 93.991 51.81 93.5 42C93.299 40.794 91.506 35.404 90.5 30C89.838 26.444 89.049 22.881 92.7 20.5Z" fill="#888DC9"/>
<path d="M39.6861 50.7512C38.601 50.3892 32 52.1462 32 53.5022C32.6499 55.4522 36 58.0022 43.7553 59.0442C50.2894 59.9232 58.5 54.0712 58.5 50.7512C51.266 46.6822 41.0425 51.2032 39.6861 50.7512Z" fill="url(#paint1_linear_1305_2)"/>
<path d="M39.7389 49.2725C38.6538 48.9105 32.0527 51.9845 32.0527 53.3415C32.7027 55.2905 41.9995 57.5835 43.808 57.5655C50.4006 57.5015 58.276 53.9485 58.276 50.6285C51.042 46.5595 41.0952 49.7245 39.7389 49.2725Z" fill="url(#paint2_linear_1305_2)"/>
<path d="M63.5 47.9997C54.0054 34.1347 28.2126 6.41469 0 7.49969C0 31.4997 62.5 52.9997 63.5 47.9997Z" fill="url(#paint3_linear_1305_2)"/>
<path d="M20.5008 32.9963C29.0472 26.1593 62.0005 46.4963 60.0005 49.9963C58.0005 53.4963 42.7001 54.9633 33.2055 49.5373C23.912 45.1543 18.0008 34.9963 20.5008 32.9963Z" fill="url(#paint4_linear_1305_2)"/>
<path d="M20.7495 32.7306C28.4887 24.9916 64.1535 46.7466 60.0844 50.3636C58.0187 52.2006 44.26 53.0456 34.7654 47.6196C25.4719 43.2366 19.3931 34.0876 20.7495 32.7306Z" fill="url(#paint5_linear_1305_2)"/>
<path d="M65.0582 48.0975C55.5636 34.2325 28.6169 6.28945 0.404297 7.37445C5.8298 29.9495 62.7976 50.3585 65.0582 48.0975Z" fill="url(#paint6_linear_1305_2)"/>
<path d="M98.9004 85C101.333 85 103.467 85.467 105.3 86.4C107.167 87.3 108.717 88.567 109.95 90.2C111.183 91.833 112.1 93.717 112.7 95.85C113.333 97.95 113.65 100.167 113.65 102.5C113.65 105.7 113.1 108.633 112 111.3C110.9 113.933 109.267 116.05 107.1 117.65C104.933 119.217 102.2 120 98.9004 120H86.4004C85.8334 120 85.3504 119.8 84.9504 119.4C84.5834 119 84.4004 118.517 84.4004 117.95V87C84.4004 86.433 84.5834 85.967 84.9504 85.6C85.3504 85.2 85.8334 85 86.4004 85H98.9004ZM98.4004 116.1C100.967 116.1 103.05 115.483 104.65 114.25C106.283 113.017 107.467 111.367 108.2 109.3C108.967 107.233 109.35 104.967 109.35 102.5C109.35 100.7 109.133 98.983 108.7 97.35C108.3 95.683 107.65 94.217 106.75 92.95C105.883 91.683 104.75 90.683 103.35 89.95C101.983 89.217 100.333 88.85 98.4004 88.85H88.1504L88.5504 88.45V116.6L88.2504 116.1H98.4004ZM130.929 120.5C128.263 120.5 125.929 119.933 123.929 118.8C121.929 117.667 120.363 116.117 119.229 114.15C118.129 112.15 117.579 109.85 117.579 107.25C117.579 104.35 118.146 101.883 119.279 99.85C120.446 97.783 121.946 96.217 123.779 95.15C125.646 94.05 127.613 93.5 129.679 93.5C131.213 93.5 132.696 93.783 134.129 94.35C135.563 94.917 136.829 95.75 137.929 96.85C139.029 97.917 139.913 99.217 140.579 100.75C141.246 102.25 141.596 103.933 141.629 105.8C141.629 106.333 141.429 106.783 141.029 107.15C140.629 107.517 140.163 107.7 139.629 107.7H119.879L118.979 104.25H138.229L137.429 104.95V103.85C137.296 102.483 136.829 101.317 136.029 100.35C135.263 99.35 134.313 98.583 133.179 98.05C132.079 97.517 130.913 97.25 129.679 97.25C128.679 97.25 127.679 97.433 126.679 97.8C125.713 98.133 124.829 98.7 124.029 99.5C123.263 100.267 122.629 101.267 122.129 102.5C121.663 103.733 121.429 105.217 121.429 106.95C121.429 108.883 121.813 110.583 122.579 112.05C123.379 113.517 124.479 114.683 125.879 115.55C127.279 116.383 128.913 116.8 130.779 116.8C131.946 116.8 132.963 116.65 133.829 116.35C134.696 116.05 135.446 115.683 136.079 115.25C136.713 114.783 137.246 114.317 137.679 113.85C138.113 113.55 138.529 113.4 138.929 113.4C139.429 113.4 139.829 113.567 140.129 113.9C140.463 114.233 140.629 114.633 140.629 115.1C140.629 115.667 140.363 116.167 139.829 116.6C138.896 117.633 137.629 118.55 136.029 119.35C134.429 120.117 132.729 120.5 130.929 120.5ZM159.491 93.5C161.758 93.5 163.541 93.967 164.841 94.9C166.141 95.833 167.058 97.083 167.591 98.65C168.158 100.217 168.441 101.967 168.441 103.9V117.95C168.441 118.517 168.241 119 167.841 119.4C167.475 119.8 167.008 120 166.441 120C165.875 120 165.391 119.8 164.991 119.4C164.625 119 164.441 118.517 164.441 117.95V104C164.441 102.733 164.241 101.6 163.841 100.6C163.475 99.567 162.841 98.75 161.941 98.15C161.075 97.517 159.875 97.2 158.341 97.2C156.941 97.2 155.658 97.517 154.491 98.15C153.325 98.75 152.391 99.567 151.691 100.6C150.991 101.6 150.641 102.733 150.641 104V117.95C150.641 118.517 150.441 119 150.041 119.4C149.675 119.8 149.208 120 148.641 120C148.075 120 147.591 119.8 147.191 119.4C146.825 119 146.641 118.517 146.641 117.95V96.15C146.641 95.583 146.825 95.117 147.191 94.75C147.591 94.35 148.075 94.15 148.641 94.15C149.241 94.15 149.725 94.35 150.091 94.75C150.458 95.117 150.641 95.583 150.641 96.15V99.7L149.641 100.8C149.808 99.933 150.191 99.067 150.791 98.2C151.391 97.3 152.141 96.5 153.041 95.8C153.941 95.1 154.941 94.55 156.041 94.15C157.141 93.717 158.291 93.5 159.491 93.5ZM173.841 94.3H185.591C186.124 94.3 186.557 94.483 186.891 94.85C187.257 95.217 187.441 95.65 187.441 96.15C187.441 96.683 187.257 97.133 186.891 97.5C186.557 97.833 186.124 98 185.591 98H173.841C173.341 98 172.907 97.817 172.541 97.45C172.174 97.083 171.991 96.633 171.991 96.1C171.991 95.6 172.174 95.183 172.541 94.85C172.907 94.483 173.341 94.3 173.841 94.3ZM179.091 87.5C179.657 87.5 180.124 87.7 180.491 88.1C180.857 88.467 181.041 88.933 181.041 89.5V113.65C181.041 114.45 181.157 115.05 181.391 115.45C181.624 115.85 181.924 116.133 182.291 116.3C182.691 116.433 183.074 116.5 183.441 116.5C183.774 116.5 184.057 116.45 184.291 116.35C184.557 116.217 184.857 116.15 185.191 116.15C185.524 116.15 185.824 116.317 186.091 116.65C186.391 116.95 186.541 117.35 186.541 117.85C186.541 118.45 186.191 118.967 185.491 119.4C184.791 119.8 184.007 120 183.141 120C182.674 120 182.091 119.967 181.391 119.9C180.724 119.833 180.057 119.617 179.391 119.25C178.724 118.883 178.157 118.283 177.691 117.45C177.257 116.583 177.041 115.383 177.041 113.85V89.5C177.041 88.933 177.241 88.467 177.641 88.1C178.041 87.7 178.524 87.5 179.091 87.5ZM213.305 93.9C213.871 93.9 214.338 94.1 214.705 94.5C215.105 94.867 215.305 95.333 215.305 95.9V117.95C215.305 118.517 215.105 119 214.705 119.4C214.338 119.8 213.871 120 213.305 120C212.705 120 212.221 119.8 211.855 119.4C211.488 119 211.305 118.517 211.305 117.95V113.2L212.255 113.1C212.255 113.833 212.005 114.633 211.505 115.5C211.005 116.367 210.321 117.183 209.455 117.95C208.588 118.683 207.555 119.3 206.355 119.8C205.188 120.267 203.921 120.5 202.555 120.5C200.288 120.5 198.255 119.917 196.455 118.75C194.655 117.55 193.221 115.933 192.155 113.9C191.121 111.867 190.605 109.55 190.605 106.95C190.605 104.317 191.121 102 192.155 100C193.221 97.967 194.655 96.383 196.455 95.25C198.255 94.083 200.255 93.5 202.455 93.5C203.888 93.5 205.221 93.733 206.455 94.2C207.688 94.667 208.755 95.3 209.655 96.1C210.588 96.9 211.305 97.783 211.805 98.75C212.338 99.717 212.605 100.683 212.605 101.65L211.305 101.35V95.9C211.305 95.333 211.488 94.867 211.855 94.5C212.221 94.1 212.705 93.9 213.305 93.9ZM203.005 116.8C204.671 116.8 206.138 116.367 207.405 115.5C208.705 114.633 209.705 113.467 210.405 112C211.138 110.5 211.505 108.817 211.505 106.95C211.505 105.117 211.138 103.467 210.405 102C209.705 100.5 208.705 99.333 207.405 98.5C206.138 97.633 204.671 97.2 203.005 97.2C201.371 97.2 199.905 97.617 198.605 98.45C197.338 99.283 196.338 100.433 195.605 101.9C194.871 103.367 194.505 105.05 194.505 106.95C194.505 108.817 194.855 110.5 195.555 112C196.288 113.467 197.288 114.633 198.555 115.5C199.855 116.367 201.338 116.8 203.005 116.8ZM226.118 117.95C226.118 118.517 225.918 119 225.518 119.4C225.118 119.8 224.634 120 224.068 120C223.501 120 223.034 119.8 222.668 119.4C222.301 119 222.118 118.517 222.118 117.95V85C222.118 84.433 222.301 83.967 222.668 83.6C223.068 83.2 223.551 83 224.118 83C224.718 83 225.201 83.2 225.568 83.6C225.934 83.967 226.118 84.433 226.118 85V117.95ZM256.545 120.5C254.079 120.5 251.912 120.133 250.045 119.4C248.179 118.667 246.379 117.5 244.645 115.9C244.412 115.667 244.212 115.417 244.045 115.15C243.912 114.85 243.845 114.533 243.845 114.2C243.845 113.667 244.029 113.2 244.395 112.8C244.795 112.367 245.279 112.15 245.845 112.15C246.312 112.15 246.729 112.333 247.095 112.7C248.395 113.967 249.795 114.933 251.295 115.6C252.829 116.267 254.545 116.6 256.445 116.6C257.912 116.6 259.229 116.367 260.395 115.9C261.595 115.433 262.545 114.783 263.245 113.95C263.945 113.117 264.295 112.15 264.295 111.05C264.262 109.717 263.862 108.617 263.095 107.75C262.362 106.883 261.329 106.167 259.995 105.6C258.695 105 257.179 104.5 255.445 104.1C253.912 103.733 252.495 103.283 251.195 102.75C249.929 102.217 248.829 101.567 247.895 100.8C246.962 100 246.229 99.05 245.695 97.95C245.195 96.817 244.945 95.5 244.945 94C244.945 92.1 245.445 90.433 246.445 89C247.445 87.567 248.829 86.467 250.595 85.7C252.362 84.9 254.395 84.5 256.695 84.5C258.729 84.5 260.645 84.833 262.445 85.5C264.279 86.167 265.745 87.083 266.845 88.25C267.512 88.883 267.845 89.5 267.845 90.1C267.845 90.6 267.629 91.067 267.195 91.5C266.795 91.9 266.329 92.1 265.795 92.1C265.429 92.1 265.095 91.967 264.795 91.7C264.229 91.067 263.512 90.5 262.645 90C261.779 89.5 260.829 89.1 259.795 88.8C258.762 88.5 257.729 88.35 256.695 88.35C255.162 88.35 253.812 88.583 252.645 89.05C251.479 89.483 250.562 90.117 249.895 90.95C249.262 91.75 248.945 92.717 248.945 93.85C248.945 95.117 249.312 96.167 250.045 97C250.779 97.8 251.762 98.467 252.995 99C254.229 99.5 255.595 99.95 257.095 100.35C258.729 100.75 260.229 101.217 261.595 101.75C262.995 102.25 264.195 102.883 265.195 103.65C266.195 104.417 266.962 105.4 267.495 106.6C268.062 107.767 268.345 109.217 268.345 110.95C268.345 112.783 267.829 114.417 266.795 115.85C265.762 117.283 264.345 118.417 262.545 119.25C260.779 120.05 258.779 120.467 256.545 120.5ZM272.356 94.3H284.106C284.64 94.3 285.073 94.483 285.406 94.85C285.773 95.217 285.956 95.65 285.956 96.15C285.956 96.683 285.773 97.133 285.406 97.5C285.073 97.833 284.64 98 284.106 98H272.356C271.856 98 271.423 97.817 271.056 97.45C270.69 97.083 270.506 96.633 270.506 96.1C270.506 95.6 270.69 95.183 271.056 94.85C271.423 94.483 271.856 94.3 272.356 94.3ZM277.606 87.5C278.173 87.5 278.64 87.7 279.006 88.1C279.373 88.467 279.556 88.933 279.556 89.5V113.65C279.556 114.45 279.673 115.05 279.906 115.45C280.14 115.85 280.44 116.133 280.806 116.3C281.206 116.433 281.59 116.5 281.956 116.5C282.29 116.5 282.573 116.45 282.806 116.35C283.073 116.217 283.373 116.15 283.706 116.15C284.04 116.15 284.34 116.317 284.606 116.65C284.906 116.95 285.056 117.35 285.056 117.85C285.056 118.45 284.706 118.967 284.006 119.4C283.306 119.8 282.523 120 281.656 120C281.19 120 280.606 119.967 279.906 119.9C279.24 119.833 278.573 119.617 277.906 119.25C277.24 118.883 276.673 118.283 276.206 117.45C275.773 116.583 275.556 115.383 275.556 113.85V89.5C275.556 88.933 275.756 88.467 276.156 88.1C276.556 87.7 277.04 87.5 277.606 87.5ZM314.826 107C314.826 109.6 314.243 111.917 313.076 113.95C311.943 115.983 310.393 117.583 308.426 118.75C306.493 119.917 304.31 120.5 301.876 120.5C299.443 120.5 297.243 119.917 295.276 118.75C293.31 117.583 291.743 115.983 290.576 113.95C289.443 111.917 288.876 109.6 288.876 107C288.876 104.4 289.443 102.083 290.576 100.05C291.743 98.017 293.31 96.417 295.276 95.25C297.243 94.083 299.443 93.5 301.876 93.5C304.31 93.5 306.493 94.083 308.426 95.25C310.393 96.417 311.943 98.017 313.076 100.05C314.243 102.083 314.826 104.4 314.826 107ZM310.826 107C310.826 105.067 310.426 103.367 309.626 101.9C308.86 100.433 307.793 99.283 306.426 98.45C305.093 97.617 303.576 97.2 301.876 97.2C300.176 97.2 298.643 97.617 297.276 98.45C295.943 99.283 294.876 100.433 294.076 101.9C293.276 103.367 292.876 105.067 292.876 107C292.876 108.9 293.276 110.583 294.076 112.05C294.876 113.517 295.943 114.683 297.276 115.55C298.643 116.383 300.176 116.8 301.876 116.8C303.576 116.8 305.093 116.383 306.426 115.55C307.793 114.683 308.86 113.517 309.626 112.05C310.426 110.583 310.826 108.9 310.826 107ZM321.843 120C321.276 120 320.793 119.8 320.393 119.4C320.026 119 319.843 118.517 319.843 117.95V96.15C319.843 95.583 320.026 95.117 320.393 94.75C320.793 94.35 321.276 94.15 321.843 94.15C322.443 94.15 322.926 94.35 323.293 94.75C323.659 95.117 323.843 95.583 323.843 96.15V102.75L323.243 101.7C323.443 100.667 323.793 99.667 324.293 98.7C324.826 97.7 325.493 96.817 326.293 96.05C327.093 95.25 328.009 94.633 329.043 94.2C330.076 93.733 331.209 93.5 332.443 93.5C333.176 93.5 333.843 93.683 334.443 94.05C335.076 94.383 335.393 94.867 335.393 95.5C335.393 96.2 335.209 96.717 334.843 97.05C334.476 97.383 334.059 97.55 333.593 97.55C333.159 97.55 332.743 97.467 332.343 97.3C331.943 97.1 331.443 97 330.843 97C330.009 97 329.176 97.233 328.343 97.7C327.543 98.133 326.793 98.767 326.093 99.6C325.426 100.433 324.876 101.383 324.443 102.45C324.043 103.483 323.843 104.6 323.843 105.8V117.95C323.843 118.517 323.643 119 323.243 119.4C322.876 119.8 322.409 120 321.843 120ZM349.738 120.5C347.071 120.5 344.738 119.933 342.738 118.8C340.738 117.667 339.171 116.117 338.038 114.15C336.938 112.15 336.388 109.85 336.388 107.25C336.388 104.35 336.955 101.883 338.088 99.85C339.255 97.783 340.755 96.217 342.588 95.15C344.455 94.05 346.421 93.5 348.488 93.5C350.021 93.5 351.505 93.783 352.938 94.35C354.371 94.917 355.638 95.75 356.738 96.85C357.838 97.917 358.721 99.217 359.388 100.75C360.055 102.25 360.405 103.933 360.438 105.8C360.438 106.333 360.238 106.783 359.838 107.15C359.438 107.517 358.971 107.7 358.438 107.7H338.688L337.788 104.25H357.038L356.238 104.95V103.85C356.105 102.483 355.638 101.317 354.838 100.35C354.071 99.35 353.121 98.583 351.988 98.05C350.888 97.517 349.721 97.25 348.488 97.25C347.488 97.25 346.488 97.433 345.488 97.8C344.521 98.133 343.638 98.7 342.838 99.5C342.071 100.267 341.438 101.267 340.938 102.5C340.471 103.733 340.238 105.217 340.238 106.95C340.238 108.883 340.621 110.583 341.388 112.05C342.188 113.517 343.288 114.683 344.688 115.55C346.088 116.383 347.721 116.8 349.588 116.8C350.755 116.8 351.771 116.65 352.638 116.35C353.505 116.05 354.255 115.683 354.888 115.25C355.521 114.783 356.055 114.317 356.488 113.85C356.921 113.55 357.338 113.4 357.738 113.4C358.238 113.4 358.638 113.567 358.938 113.9C359.271 114.233 359.438 114.633 359.438 115.1C359.438 115.667 359.171 116.167 358.638 116.6C357.705 117.633 356.438 118.55 354.838 119.35C353.238 120.117 351.538 120.5 349.738 120.5Z" fill="#4688EB"/>
<path d="M91.394 20.6382L114.508 3.57318C115.871 2.21018 117.962 -0.992817 115.871 0.302183C99.298 11.2062 93.155 14.5682 91.066 15.5672C73.4022 16.6572 69.168 28.8552 69.2589 34.8172C69.5433 37.7392 67.3655 45.6602 67.8177 45.8452C68.2698 46.2742 69.8264 42.8902 70.1971 42.4442C71.167 40.6452 71.4354 39.5912 72.3691 37.8342C73.3002 36.0812 74.9657 33.4652 74.9657 33.4652M74.9657 33.4652L77.65 29.3902M74.9657 33.4652C76.394 30.9692 77.65 29.3902 77.65 29.3902M77.65 29.3902C77.65 29.3902 79.987 28.6082 80.929 28.0282C82.138 27.2842 82.554 26.7212 82.738 25.7672C82.838 25.2472 82.825 24.8822 82.583 24.4112C82.325 23.9082 81.909 23.7082 81.381 23.5062C80.264 23.0792 79.072 23.5372 78.491 23.9782C77.637 24.8312 77.451 25.4912 77.722 26.7212C77.947 27.7442 77.65 29.3902 77.65 29.3902ZM24.8565 32.1522C25.9893 33.9812 53.9609 46.4682 54.8773 45.5532M39.7859 50.1822C44.7364 52.1732 53.7438 52.6032 54.2539 51.5382M44.1429 98.4812C44.192 97.4222 48.7305 89.6252 50.9227 86.8352C52.1079 85.3272 52.5505 84.2312 52.4317 83.1032C52.1259 80.1932 53.8846 72.1322 56.4867 64.5122C57.197 62.4332 57.7051 60.6592 57.6163 60.5712C57.305 60.2602 53.2276 65.4412 50.4773 69.6432C47.6424 73.9742 46.7941 75.7932 44.9231 81.5502C43.3655 86.3442 43.0968 87.9352 43.1289 92.1612C43.1502 94.8952 43.3781 97.6222 43.6359 98.2202C43.9565 98.9652 44.1168 99.0482 44.1429 98.4812ZM44.1429 98.4812C38.7948 109.459 35.8793 135.207 67.4991 145.675C61.8418 142.637 50.3271 131.065 49.0293 113.774M49.0293 113.774L49.388 112.459L50.3682 113.952C53.0052 117.969 59.5789 123.986 63.7854 126.233C65.5398 127.17 65.5419 126.781 63.7979 124.34C62.1608 122.049 61.8708 121.562 58.7796 115.906C56.8792 112.428 55.5165 110.462 54.2539 106.245C52.9282 101.818 52.5408 97.6082 52.4317 94.0382C52.3452 91.2082 53.5054 87.4112 52.8975 86.8042C52.2897 86.1972 48.1216 94.9962 47.9242 103.985C47.8397 107.831 48.4683 115.832 49.0293 113.774ZM11.3406 8.97319C23.7416 11.7672 35.6912 18.6332 48.8036 30.5002C52.7473 34.0692 59.2414 41.3532 62.4846 45.8452C64.1272 48.1212 64.2243 48.4302 63.2964 48.4302C62.7169 48.4302 61.5518 48.1592 60.7079 47.8272C59.864 47.4962 58.4547 47.0112 57.577 46.7492L55.9807 46.2742L57.843 48.1912C59.3886 49.7832 59.5674 50.1972 58.8941 50.6222C58.4482 50.9042 57.8992 51.1382 57.674 51.1422C57.4494 51.1472 57.3268 51.4262 57.4015 51.7632C57.6413 52.8412 52.6579 55.9842 49.3422 56.8462C47.5769 57.3052 44.8963 57.6762 43.3851 57.6692C40.5791 57.6572 34.3435 55.7672 32.2233 54.2842C31.0583 53.4702 31.0714 53.4462 33.3884 52.1102C34.6766 51.3682 36.4348 50.5922 37.2945 50.3852C38.845 50.0122 38.9611 49.5352 37.5513 49.3292C37.1479 49.2702 35.1029 48.2812 33.0062 47.1302C26.5334 43.5792 18.1078 33.9582 20.2721 32.5892C20.6788 32.3322 21.4404 32.1182 21.9654 32.1132C23.3207 32.1022 23.1479 31.0802 21.6928 30.5032C19.4707 29.6232 11.2458 22.6392 7.3821 18.3532C3.8614 14.4482 2.6223 12.7652 1.1781 9.93017L0 7.61818H2.6637C4.1291 7.61818 8.0336 8.22719 11.3406 8.97319ZM91.394 21.8522C90.892 22.5672 90.521 24.1902 90.521 25.6702C90.521 28.0542 91.676 33.6112 92.423 34.8172C92.601 35.1042 93.109 37.3662 93.552 39.8442C95.006 47.9752 93.308 53.6592 87.777 59.1772C84.502 62.4442 83.557 62.8212 85.045 60.2652C86.359 58.0092 86.114 53.7502 85.341 52.4242C84.889 51.6462 84.047 51.0152 84.387 52.4242C84.727 53.8322 77.507 65.7752 70.1513 70.1022C66.9316 71.9962 62.6989 74.6382 60.745 75.9742L57.1921 78.4022L57.5519 75.7952C58.0622 72.1032 61.3834 62.4942 63.8137 57.6802C67.2189 50.9362 72.1238 43.9852 76.994 39.0022C80.826 35.0812 81.76 33.7722 82.583 31.1652C83.395 28.5932 84.29 27.3172 87.605 24.0082C91.424 20.1972 93.307 19.1252 91.394 21.8522ZM79.072 25.5752C79.072 25.8742 79.317 26.1192 79.617 26.1192C79.917 26.1192 80.162 25.8742 80.162 25.5752C80.162 25.2762 79.917 25.0312 79.617 25.0312C79.317 25.0312 79.072 25.2762 79.072 25.5752Z" stroke="#064CB6" stroke-width="0.54517"/>
</g>
<defs>
<linearGradient id="paint0_linear_1305_2" x1="42" y1="-7.882" x2="142.345" y2="166.669" gradientUnits="userSpaceOnUse">
<stop offset="0.292504" stop-color="#B4BAFF"/>
<stop offset="0.900675" stop-color="#060C52"/>
</linearGradient>
<linearGradient id="paint1_linear_1305_2" x1="28.8351" y1="54.3682" x2="53.2499" y2="53.0112" gradientUnits="userSpaceOnUse">
<stop stop-color="#9856A7"/>
<stop offset="1" stop-color="#C8C5B4"/>
</linearGradient>
<linearGradient id="paint2_linear_1305_2" x1="28.8879" y1="52.8895" x2="53.3026" y2="51.5325" gradientUnits="userSpaceOnUse">
<stop stop-color="#E985FF"/>
<stop offset="1" stop-color="#FFFBE6"/>
</linearGradient>
<linearGradient id="paint3_linear_1305_2" x1="-2.8085" y1="12.5137" x2="59.5848" y2="53.2047" gradientUnits="userSpaceOnUse">
<stop stop-color="#B55678"/>
<stop offset="1" stop-color="#D1CCC5"/>
</linearGradient>
<linearGradient id="paint4_linear_1305_2" x1="24.615" y1="37.8133" x2="55.8116" y2="52.7333" gradientUnits="userSpaceOnUse">
<stop stop-color="#A28ABA"/>
<stop offset="0.956836" stop-color="#D2CFBF"/>
</linearGradient>
<linearGradient id="paint5_linear_1305_2" x1="26.175" y1="35.8956" x2="57.3717" y2="50.8156" gradientUnits="userSpaceOnUse">
<stop stop-color="#DAB6FD"/>
<stop offset="0.956836" stop-color="#FFFBE5"/>
</linearGradient>
<linearGradient id="paint6_linear_1305_2" x1="-1.4042" y1="7.85845" x2="60.9891" y2="48.5495" gradientUnits="userSpaceOnUse">
<stop stop-color="#F570A1"/>
<stop offset="1" stop-color="#FFF9F1"/>
</linearGradient>
<clipPath id="clip0_1305_2">
<rect width="360" height="146" fill="white"/>
</clipPath>
</defs>
</svg>
